<svg width="64" height="17" viewBox="0 0 64 17" fill="none" xmlns="http://www.w3.org/2000/svg">
<path d="M63.3505 12.6946L58.8158 8.22684L63.3192 3.78719C64.1706 2.94779 64.1863 1.57109 63.3541 0.712164C62.5219 -0.146629 61.1568 -0.162565 60.3054 0.676974L55.7304 5.187L53.3412 2.83305C53.302 2.79441 53.2613 2.75816 53.2199 2.7231C53.1803 2.67516 53.1387 2.62828 53.0943 2.58313C51.9098 1.37947 50.5944 0.58561 49.1846 0.22374C48.0227 -0.0745206 46.8261 -0.0741222 45.6278 0.224935C44.1838 0.585211 42.8638 1.36499 41.8101 2.47968L39.3759 5.03282L34.9574 0.676974C34.1059 -0.162565 32.741 -0.146762 31.9087 0.712164C31.0765 1.57109 31.0921 2.94779 31.9436 3.78719L36.3871 8.16775L33.2567 11.4511C32.6308 12.0287 31.9297 12.1909 31.278 11.907C30.7183 11.6633 30.1203 11.03 30.1203 9.9832V6.95279C30.1203 6.89503 30.1174 6.83806 30.1131 6.78149V2.24543C30.1131 1.04442 29.1479 0.0708913 27.9571 0.0708913C26.7664 0.0708913 25.8011 1.04455 25.8011 2.24543V7.13924C25.8011 7.24548 25.8018 7.35158 25.8026 7.45715C25.8032 7.54467 25.804 7.63205 25.8048 7.71943C25.8205 9.40833 25.7968 10.3987 25.1304 11.1148C24.5796 11.7068 23.7202 11.9964 23.1007 12.0243H22.6193C21.9997 11.9964 21.1404 11.7069 20.5895 11.1148C19.9231 10.3986 19.8995 9.4082 19.9152 7.71929C19.916 7.63205 19.9168 7.54467 19.9174 7.45715C19.9177 7.42701 19.9178 7.41532 19.9179 7.40603C19.9183 7.38066 19.9189 7.36433 19.9189 7.28146V4.38385C19.9189 2.99493 19.2281 1.67215 18.0709 0.845492C16.907 0.0139217 15.4297 -0.204927 14.1185 0.260392C12.8649 0.705126 11.8865 1.75435 11.4839 3.07833L8.7529 10.4483C8.71038 10.5293 8.67206 10.6135 8.63915 10.7015C8.55054 10.9391 8.32501 11.5441 8.13911 11.9154C7.95334 11.5441 7.72781 10.9392 7.6392 10.7015L4.17435 1.40961C3.75514 0.28549 2.51176 -0.283011 1.39753 0.139813C0.283044 0.562636 -0.280586 1.8165 0.138615 2.94062L3.60347 12.2325C3.992 13.2744 4.36249 14.1968 4.96351 14.9358C5.76149 15.9168 6.82845 16.4064 8.13924 16.3923C8.15794 16.3926 8.1765 16.3927 8.1952 16.3927C9.47913 16.3927 10.5283 15.9029 11.315 14.936C11.8795 14.2421 12.2407 13.3862 12.6042 12.4217C12.6484 12.3379 12.6883 12.2506 12.7221 12.1592L15.5807 4.44507L15.592 4.4047C15.5977 4.40948 15.603 4.41426 15.6072 4.41904V7.2816C15.6072 7.30444 15.6072 7.31599 15.607 7.32356L15.6069 7.32847C15.6065 7.34587 15.6061 7.36791 15.6057 7.42449C15.6051 7.50921 15.6043 7.59407 15.6035 7.67879C15.5853 9.63435 15.5628 12.0681 17.4455 14.0913C18.7179 15.4585 20.6113 16.3113 22.5106 16.3724L23.1749 16.3735L23.2093 16.3724C24.8428 16.3198 26.4715 15.6814 27.7049 14.634C28.243 15.1676 28.8726 15.5972 29.5689 15.9003C30.3191 16.227 31.1176 16.3929 31.921 16.3929C32.2665 16.3929 32.6131 16.3622 32.957 16.3005C34.1555 16.0852 35.2933 15.492 36.2476 14.5849L36.2861 14.5482L39.4707 11.2081L44.0581 15.7304C44.4775 16.1439 45.0213 16.3499 45.5648 16.3499C46.1247 16.3499 46.6844 16.1311 47.1068 15.6953C47.3605 15.4334 47.5349 15.1233 47.6314 14.7952C47.5127 14.391 47.5128 13.9593 47.6314 13.5557C47.5304 13.212 47.3441 12.8887 47.0719 12.6204L42.4596 8.07346L44.9219 5.49097L44.9293 5.48314C45.4164 4.96709 46.0161 4.60894 46.6635 4.44733C47.8465 4.15185 48.9491 4.5448 50.0342 5.64754C50.0803 5.69442 50.1282 5.73824 50.1773 5.77994C50.2243 5.83677 50.2747 5.89188 50.3283 5.94474L52.646 8.2283L48.1908 12.6204C47.9187 12.8888 47.7323 13.212 47.6313 13.5557C47.7499 13.9594 47.75 14.3911 47.6313 14.7952C47.7278 15.1235 47.9022 15.4336 48.1559 15.6953C48.5783 16.1311 49.1379 16.3499 49.6979 16.3499C50.2414 16.3499 50.7853 16.1439 51.2046 15.7304L55.7313 11.2679L60.3377 15.8062C60.757 16.2193 61.3007 16.4251 61.844 16.4251C62.4042 16.4251 62.964 16.2063 63.3863 15.7701C64.2183 14.9105 64.2024 13.5338 63.3505 12.6946ZM15.3148 2.53506L15.0374 2.59907C14.489 2.82708 14.1064 3.49478 13.8041 4.1229L13.5918 4.65117L11.7492 9.59238L11.0018 11.5969C10.7237 12.3426 10.4327 12.9843 10.0841 13.4803C9.59367 14.1778 8.98857 14.5867 8.1424 14.5867C8.14201 14.5867 8.14161 14.5867 8.14122 14.5867C8.14095 14.5867 8.14069 14.5867 8.14043 14.5867C8.14016 14.5867 8.1399 14.5867 8.13964 14.5867C8.13924 14.5867 8.13872 14.5867 8.13845 14.5867C6.69047 14.5867 5.94818 13.3916 5.27909 11.5969L1.81384 2.30506C1.74274 2.11423 1.83833 1.90136 2.02765 1.82951C2.21671 1.75794 2.42789 1.85421 2.49912 2.04517L5.96398 11.3371C6.6465 13.1675 7.23593 13.8484 8.13819 13.8484C8.13858 13.8484 8.13898 13.8482 8.13924 13.8484C8.13964 13.8484 8.1399 13.8484 8.1403 13.8484C8.14069 13.8484 8.14095 13.8484 8.14135 13.8484C8.14148 13.8485 8.14201 13.8484 8.1424 13.8484C8.64099 13.8484 9.04387 13.64 9.41988 13.1452C9.72441 12.7446 10.0113 12.1561 10.3167 11.3371L11.0644 9.33197L12.9119 4.37801L13.1403 3.8119C13.5099 3.04261 13.9955 2.21382 14.7963 1.90122L14.821 1.89153L15.1519 1.8153C15.3486 1.76989 15.5452 1.89418 15.5903 2.09298C15.6351 2.29164 15.5119 2.48964 15.3148 2.53506ZM33.1945 2.49615C33.05 2.35366 33.0473 2.1198 33.1886 1.97399C33.33 1.82832 33.5616 1.82553 33.7063 1.96802L38.1351 6.3341L37.6276 6.86634L33.1945 2.49615ZM26.9693 12.8555C26.8596 12.9732 26.7426 13.0861 26.6196 13.194C25.6881 14.0106 24.4013 14.5275 23.1523 14.5676L23.1465 14.5679L22.5677 14.5676C21.1537 14.5222 19.6911 13.866 18.7507 12.8555C17.3594 11.3604 17.3767 9.49717 17.3934 7.69539C17.3942 7.6096 17.395 7.52382 17.3956 7.4379C17.396 7.39222 17.3963 7.37442 17.3966 7.36048C17.3968 7.34441 17.3969 7.33392 17.3969 7.28133V4.64997C17.3969 4.02716 17.1089 3.15336 16.6267 2.76931C16.4681 2.64289 16.4411 2.41076 16.5664 2.25074C16.6919 2.09072 16.9221 2.0635 17.0806 2.18992C17.8499 2.80291 18.1291 3.99701 18.1291 4.6501V7.28146C18.1291 7.34282 18.1288 7.35503 18.1286 7.37376C18.1283 7.38637 18.128 7.40231 18.1278 7.44361C18.1271 7.52993 18.1263 7.61624 18.1255 7.70243C18.1095 9.43489 18.0943 11.0712 19.2847 12.3503C20.0836 13.2088 21.3787 13.789 22.5856 13.8296H23.1349C24.2712 13.7915 25.4855 13.2748 26.2904 12.4981C26.3404 12.4499 26.389 12.4006 26.4357 12.3504C27.6259 11.0715 27.6108 9.43515 27.5948 7.70283C27.594 7.61651 27.5932 7.53019 27.5926 7.44374C27.5918 7.34242 27.5911 7.24096 27.5911 7.1395V4.81145V2.24543C27.5911 2.04159 27.7551 1.87626 27.9571 1.87626C28.1592 1.87626 28.3232 2.04159 28.3232 2.24543V4.8088V7.13924C28.3232 7.2387 28.3238 7.3383 28.3246 7.43776C28.3253 7.52382 28.3261 7.60974 28.3268 7.69565C28.3433 9.4973 28.3605 11.3604 26.9693 12.8555ZM45.8209 13.9109C45.9654 14.0534 45.968 14.2873 45.8268 14.4331C45.755 14.507 45.66 14.5442 45.5649 14.5442C45.4726 14.5442 45.3803 14.5093 45.3091 14.439L40.7114 9.90645L41.219 9.3742L45.8209 13.9109ZM46.7646 2.5911C46.5884 2.61567 46.4098 2.65033 46.2335 2.69441C45.2547 2.93863 44.3554 3.47234 43.6328 4.23777L41.1794 6.8111L39.9386 8.11237L39.4311 8.64462L38.1904 9.94589L35.0263 13.2646L35.0197 13.2708C34.1201 14.126 33.0563 14.5813 31.9431 14.5872C31.9359 14.5872 31.9286 14.5872 31.9214 14.5872C30.9062 14.5872 29.9177 14.2055 29.1354 13.5109C29.0138 13.4031 28.9805 13.2322 29.0404 13.0897C29.0543 13.0569 29.073 13.0258 29.0967 12.9971C29.0986 12.9948 29.1003 12.9921 29.1024 12.9897C29.2361 12.8367 29.4673 12.8219 29.6191 12.9565C30.2675 13.5322 31.0844 13.8486 31.9214 13.8486C31.9274 13.8486 31.9332 13.8486 31.9392 13.8486C32.861 13.8437 33.7501 13.4602 34.511 12.7394L37.6667 9.42958L38.9075 8.12831L39.415 7.59606L40.6556 6.29479L43.1037 3.72717C43.9213 2.86107 44.9431 2.25552 46.0574 1.97745C46.2585 1.92725 46.4627 1.88754 46.6643 1.85952C46.8646 1.83217 47.0494 1.9728 47.077 2.17478C47.1048 2.37677 46.9648 2.56321 46.7646 2.5911ZM52.8244 5.87967L51.5725 4.64612L51.3446 4.40988C51.3306 4.39925 51.3172 4.38797 51.3046 4.37522C50.8746 3.93832 50.4286 3.57897 49.9699 3.29718C49.4708 2.99055 48.9566 2.77582 48.4306 2.65723C48.2334 2.61274 48.1092 2.41528 48.1533 2.21635C48.1974 2.01742 48.3929 1.89232 48.5904 1.93668C49.2294 2.0809 49.8496 2.34516 50.4461 2.72562C50.8545 2.98617 51.252 3.30103 51.6365 3.6698C51.6612 3.68534 51.6847 3.70367 51.706 3.72571L52.094 4.12795L53.337 5.35246L54.4503 6.44923L53.9267 6.96541L52.8244 5.87967ZM55.7311 8.74342L54.4507 10.0056L49.9537 14.4389C49.8825 14.509 49.7902 14.5441 49.6979 14.5441C49.6029 14.5441 49.5078 14.5069 49.4361 14.4329C49.2948 14.2871 49.2974 14.0533 49.442 13.9108L53.9268 9.48947L55.2072 8.22724L55.7308 7.71106L57.0112 6.44883L61.5564 1.96802C61.7011 1.82553 61.9327 1.82832 62.0741 1.97399C62.2154 2.1198 62.2127 2.35366 62.0682 2.49615L57.535 6.96501L56.2547 8.22724L55.7311 8.74342ZM62.106 14.5082C62.0342 14.5823 61.9391 14.6194 61.8441 14.6194C61.7519 14.6194 61.6595 14.5845 61.5884 14.5143L57.0118 10.0052L57.5354 9.48907L62.0999 13.9861C62.2445 14.1286 62.2472 14.3623 62.106 14.5082Z" fill="white"/>
</svg>
